<svg xmlns="http://www.w3.org/2000/svg" xmlns:xlink="http://www.w3.org/1999/xlink" width="793" zoomAndPan="magnify" viewBox="0 0 595.5 842.249979" height="1122" preserveAspectRatio="xMidYMid meet" version="1.0"><defs><clipPath id="42c021ec43"><path d="M 42.101562 245.808594 L 498.832031 245.808594 L 498.832031 319.992188 L 42.101562 319.992188 Z M 42.101562 245.808594 " clip-rule="nonzero"/></clipPath><clipPath id="f75509dc02"><path d="M 42.101562 206 L 502.578125 206 L 502.578125 320.507812 L 42.101562 320.507812 Z M 42.101562 206 " clip-rule="nonzero"/></clipPath></defs><g clip-path="url(#42c021ec43)"><path fill="#bdf1c7" d="M 42.101562 282.941406 L 42.101562 320.054688 L 498.832031 320.054688 L 498.832031 262.523438 L 497.867188 262.914062 C 497.296875 263.125 495.65625 263.765625 494.191406 264.296875 C 492.730469 264.867188 488.234375 266.640625 484.199219 268.3125 C 474.496094 272.289062 467.359375 274.917969 460.828125 276.871094 C 440.917969 282.835938 419.046875 286.53125 393.210938 288.234375 C 352.179688 291.003906 317.746094 289.191406 278.671875 282.195312 C 266.21875 279.996094 252.304688 277.117188 210.699219 268.203125 C 159.746094 257.300781 135.804688 253.113281 104.726562 249.597656 C 84.601562 247.324219 62.371094 245.832031 48.097656 245.832031 L 42.101562 245.832031 Z M 42.101562 282.941406 " fill-opacity="1" fill-rule="nonzero"/></g><g clip-path="url(#f75509dc02)"><path fill="#545454" d="M 424.695312 206.402344 C 408.867188 207.808594 393.757812 211.519531 380.085938 217.25 C 365.011719 223.558594 354.617188 230.835938 332.597656 250.515625 C 305.292969 274.914062 294.179688 282.769531 276.515625 290.160156 C 259.964844 297.042969 233.164062 304.179688 209.386719 308 C 187.007812 311.566406 164.308594 311.242188 143.625 307.0625 C 133.480469 305.007812 117.109375 300.609375 106.929688 297.1875 C 100.777344 295.132812 86.890625 289.980469 79.515625 286.988281 C 74.589844 285.003906 47.285156 273.113281 44.980469 271.960938 C 44.296875 271.597656 43.363281 271.203125 42.929688 271.09375 L 42.101562 270.84375 L 42.101562 320.613281 L 502.578125 320.613281 L 502.578125 229.792969 L 500.167969 227.773438 C 492.6875 221.539062 478.980469 214.042969 469.085938 210.761719 C 463.222656 208.816406 458.90625 207.84375 452.214844 206.90625 C 447.324219 206.1875 430.234375 205.898438 424.695312 206.402344 Z M 424.695312 206.402344 " fill-opacity="1" fill-rule="nonzero"/></g></svg>