<svg xmlns="http://www.w3.org/2000/svg" xmlns:xlink="http://www.w3.org/1999/xlink" width="793" zoomAndPan="magnify" viewBox="0 0 595.5 842.249979" height="1122" preserveAspectRatio="xMidYMid meet" version="1.0"><defs><g/><clipPath id="1a37e03bf7"><path d="M 0.015625 49.625 L 594.984375 49.625 L 594.984375 325.800781 L 0.015625 325.800781 Z M 0.015625 49.625 " clip-rule="nonzero"/></clipPath></defs><g clip-path="url(#1a37e03bf7)"><path fill="#1b3a64" d="M 0.015625 49.625 L 652.925781 49.625 L 652.925781 325.855469 L 0.015625 325.855469 Z M 0.015625 49.625 " fill-opacity="1" fill-rule="nonzero"/></g><g fill="#000000" fill-opacity="1"><g transform="translate(326.471182, 162.867833)"><g/></g></g><g fill="#000000" fill-opacity="1"><g transform="translate(326.471182, 182.366841)"><g/></g></g><g fill="#000000" fill-opacity="1"><g transform="translate(326.471182, 201.865849)"><g/></g></g><g fill="#000000" fill-opacity="1"><g transform="translate(326.471182, 221.364856)"><g/></g></g><path stroke-linecap="butt" transform="matrix(0.749527, -0.000000000000000093, 0.000000000000000093, 0.749962, 91.736228, 293.779305)" fill="none" stroke-linejoin="miter" d="M -0.00247179 2.997537 L 458.276051 2.997537 " stroke="#ffffff" stroke-width="6" stroke-opacity="1" stroke-miterlimit="4"/><path stroke-linecap="butt" transform="matrix(0.74944, -0.00738734, 0.00739213, 0.749925, 91.714055, 234.35958)" fill="none" stroke-linejoin="miter" d="M -0.00247653 3.000001 L 458.298278 2.998541 " stroke="#ffffff" stroke-width="6" stroke-opacity="1" stroke-miterlimit="4"/><path stroke-linecap="butt" transform="matrix(-0.0000979914, 0.752313, -0.749962, -0.0000976851, 438.536036, 230.97444)" fill="none" stroke-linejoin="miter" d="M -0.00198166 3.001326 L 89.726519 3.000019 " stroke="#ffffff" stroke-width="6" stroke-opacity="1" stroke-miterlimit="4"/><path stroke-linecap="butt" transform="matrix(0.000238027, 0.745504, -0.749962, 0.000239451, 96.214844, 234.916398)" fill="none" stroke-linejoin="miter" d="M 0.00114361 3.000154 L 81.489667 2.999974 " stroke="#ffffff" stroke-width="6" stroke-opacity="1" stroke-miterlimit="4"/></svg>