<svg xmlns="http://www.w3.org/2000/svg" xmlns:xlink="http://www.w3.org/1999/xlink" width="793" zoomAndPan="magnify" viewBox="0 0 595.5 842.249979" height="1122" preserveAspectRatio="xMidYMid meet" version="1.0"><defs><clipPath id="10e4e0a828"><path d="M 45.648438 206.175781 L 502.375 206.175781 L 502.375 280.363281 L 45.648438 280.363281 Z M 45.648438 206.175781 " clip-rule="nonzero"/></clipPath><clipPath id="2689fe3201"><path d="M 41.902344 205.65625 L 502.378906 205.65625 L 502.378906 320.261719 L 41.902344 320.261719 Z M 41.902344 205.65625 " clip-rule="nonzero"/></clipPath></defs><g clip-path="url(#10e4e0a828)"><path fill="#bdf1c7" d="M 502.375 243.226562 L 502.375 206.117188 L 45.648438 206.117188 L 45.648438 263.648438 L 46.609375 263.257812 C 47.183594 263.042969 48.824219 262.40625 50.285156 261.871094 C 51.75 261.304688 56.246094 259.527344 60.277344 257.859375 C 69.980469 253.882812 77.117188 251.253906 83.648438 249.300781 C 103.558594 243.335938 125.433594 239.640625 151.265625 237.9375 C 192.300781 235.167969 226.730469 236.976562 265.804688 243.972656 C 278.257812 246.175781 292.171875 249.050781 333.777344 257.964844 C 384.730469 268.867188 408.671875 273.058594 439.753906 276.574219 C 459.878906 278.847656 482.105469 280.339844 496.378906 280.339844 L 502.375 280.339844 Z M 502.375 243.226562 " fill-opacity="1" fill-rule="nonzero"/></g><g clip-path="url(#2689fe3201)"><path fill="#545454" d="M 119.789062 319.761719 C 135.617188 318.355469 150.726562 314.644531 164.398438 308.914062 C 179.472656 302.605469 189.867188 295.324219 211.882812 275.648438 C 239.191406 251.25 250.304688 243.390625 267.96875 236.003906 C 284.519531 229.121094 311.320312 221.984375 335.097656 218.164062 C 357.472656 214.597656 380.175781 214.921875 400.859375 219.101562 C 411.003906 221.15625 427.375 225.550781 437.554688 228.976562 C 443.707031 231.03125 457.59375 236.183594 464.96875 239.175781 C 469.894531 241.15625 497.199219 253.050781 499.503906 254.203125 C 500.1875 254.566406 501.121094 254.960938 501.554688 255.070312 L 502.378906 255.320312 L 502.378906 205.550781 L 41.902344 205.550781 L 41.902344 296.371094 L 44.3125 298.390625 C 51.796875 304.625 65.503906 312.121094 75.398438 315.402344 C 81.261719 317.347656 85.578125 318.320312 92.269531 319.257812 C 97.160156 319.976562 114.25 320.265625 119.789062 319.761719 Z M 119.789062 319.761719 " fill-opacity="1" fill-rule="nonzero"/></g></svg>